<?xml version="1.0" encoding="UTF-8"?>
<!-- Generated from Make Me a Hanzi stroke medians. See ARPHICPL.TXT. -->
<svg xmlns="http://www.w3.org/2000/svg" viewBox="0 0 1016 1000">
<g id="StrokePaths_053ef">
  <path d="M 140 233 C 150.2 236.0 142.0 255.8 201.0 251.0 C 260.0 246.2 384.3 218.0 494.0 204.0 C 603.7 190.0 784.0 168.5 859.0 167.0 C 934.0 165.5 929.8 190.3 944.0 195.0"/>
  <path d="M 264 379 C 267.5 382.0 279.5 390.7 285.0 397.0 C 290.5 403.3 289.5 384.0 297.0 417.0 C 304.5 450.0 324.5 565.3 330.0 595.0"/>
  <path d="M 316 380 C 319.5 381.7 312.2 393.3 337.0 390.0 C 361.8 386.7 438.8 364.2 465.0 360.0 C 491.2 355.8 485.3 359.8 494.0 365.0 C 502.7 370.2 517.7 372.2 517.0 391.0 C 516.3 409.8 499.3 460.0 490.0 478.0 C 480.7 496.0 465.8 495.5 461.0 499.0"/>
  <path d="M 349 559 C 351.2 557.2 344.8 553.2 362.0 548.0 C 379.2 542.8 428.3 531.7 452.0 528.0 C 475.7 524.3 491.2 525.2 504.0 526.0 C 516.8 526.8 524.8 531.8 529.0 533.0"/>
  <path d="M 641 216 C 648.2 222.0 676.8 156.0 684.0 252.0 C 691.2 348.0 686.8 693.3 684.0 792.0 C 681.2 890.7 672.7 833.0 667.0 844.0 C 661.3 855.0 663.7 860.2 650.0 858.0 C 636.3 855.8 604.3 840.7 585.0 831.0 C 565.7 821.3 542.5 805.2 534.0 800.0"/>
</g>
<g id="StrokeNumbers_053ef">
  <text transform="matrix(1 0 0 1 158.0 203.0)">1</text>
  <text transform="matrix(1 0 0 1 282.0 349.0)">2</text>
  <text transform="matrix(1 0 0 1 334.0 350.0)">3</text>
  <text transform="matrix(1 0 0 1 367.0 529.0)">4</text>
  <text transform="matrix(1 0 0 1 659.0 186.0)">5</text>
</g>
</svg>
