<?xml version="1.0" encoding="UTF-8"?>
<!-- Generated from Make Me a Hanzi stroke medians. See ARPHICPL.TXT. -->
<svg xmlns="http://www.w3.org/2000/svg" viewBox="-14 0 1056 914">
<g id="StrokePaths_058f0">
  <path d="M 236 238 C 244.8 239.7 248.3 250.2 289.0 248.0 C 329.7 245.8 410.5 235.0 480.0 225.0 C 549.5 215.0 660.8 194.3 706.0 188.0 C 751.2 181.7 738.2 185.8 751.0 187.0 C 763.8 188.2 777.7 193.7 783.0 195.0"/>
  <path d="M 483 89 C 486.2 91.5 495.8 97.2 502.0 104.0 C 508.2 110.8 518.0 98.5 520.0 130.0 C 522.0 161.5 517.7 261.5 514.0 293.0 C 510.3 324.5 500.7 314.7 498.0 319.0"/>
  <path d="M 324 353 C 333.7 354.2 327.8 366.0 382.0 360.0 C 436.2 354.0 596.3 323.0 649.0 317.0 C 701.7 311.0 689.8 322.8 698.0 324.0"/>
  <path d="M 339 459 C 341.5 461.0 323.8 472.8 354.0 471.0 C 384.2 469.2 471.5 456.0 520.0 448.0 C 568.5 440.0 619.7 427.2 645.0 423.0 C 670.3 418.8 663.8 421.5 672.0 423.0 C 680.2 424.5 686.2 425.5 694.0 432.0 C 701.8 438.5 719.5 446.0 719.0 462.0 C 718.5 478.0 700.7 513.5 691.0 528.0 C 681.3 542.5 666.0 545.5 661.0 549.0"/>
  <path d="M 484 471 C 487.7 476.3 503.3 488.2 506.0 503.0 C 508.7 517.8 504.0 548.2 500.0 560.0 C 496.0 571.8 485.0 571.7 482.0 574.0"/>
  <path d="M 319 635 C 321.5 633.0 328.2 625.7 334.0 623.0 C 339.8 620.3 301.2 626.3 354.0 619.0 C 406.8 611.7 591.7 585.8 651.0 579.0 C 710.3 572.2 696.2 576.7 710.0 578.0 C 723.8 579.3 730.0 585.5 734.0 587.0"/>
  <path d="M 263 440 C 269.0 445.7 292.7 463.8 299.0 474.0 C 305.3 484.2 304.2 468.2 301.0 501.0 C 297.8 533.8 287.3 629.0 280.0 671.0 C 272.7 713.0 267.3 726.2 257.0 753.0 C 246.7 779.8 229.2 812.3 218.0 832.0 C 206.8 851.7 204.8 855.0 190.0 871.0 C 175.2 887.0 146.8 914.3 129.0 928.0 C 111.2 941.7 90.7 948.8 83.0 953.0"/>
</g>
<g id="StrokeNumbers_058f0">
  <text transform="matrix(1 0 0 1 254.0 208.0)">1</text>
  <text transform="matrix(1 0 0 1 501.0 59.0)">2</text>
  <text transform="matrix(1 0 0 1 342.0 323.0)">3</text>
  <text transform="matrix(1 0 0 1 357.0 429.0)">4</text>
  <text transform="matrix(1 0 0 1 502.0 441.0)">5</text>
  <text transform="matrix(1 0 0 1 337.0 605.0)">6</text>
  <text transform="matrix(1 0 0 1 281.0 410.0)">7</text>
</g>
</svg>
