<?xml version="1.0" encoding="UTF-8"?>
<!-- Generated from Make Me a Hanzi stroke medians. See ARPHICPL.TXT. -->
<svg xmlns="http://www.w3.org/2000/svg" viewBox="-14 0 1056 914">
<g id="StrokePaths_062c5">
  <path d="M 123 404 C 129.2 404.5 146.7 407.8 160.0 407.0 C 173.3 406.2 171.2 408.7 203.0 399.0 C 234.8 389.3 317.7 358.0 351.0 349.0 C 384.3 340.0 394.3 345.7 403.0 345.0"/>
  <path d="M 274 128 C 276.7 129.3 282.0 129.3 290.0 136.0 C 298.0 142.7 318.0 139.5 322.0 168.0 C 326.0 196.5 314.5 201.3 314.0 307.0 C 313.5 412.7 319.0 714.3 319.0 802.0 C 319.0 889.7 317.7 822.5 314.0 833.0 C 310.3 843.5 307.5 862.0 297.0 865.0 C 286.5 868.0 270.2 858.8 251.0 851.0 C 231.8 843.2 193.8 824.5 182.0 818.0 C 170.2 811.5 182.0 813.0 180.0 812.0 C 178.0 811.0 171.7 812.0 170.0 812.0"/>
  <path d="M 53 699 C 61.0 699.7 80.2 712.7 101.0 703.0 C 121.8 693.3 132.3 674.3 178.0 641.0 C 223.7 607.7 342.2 526.0 375.0 503.0"/>
  <path d="M 460 330 C 464.7 334.3 481.8 346.8 488.0 356.0 C 494.2 365.2 489.7 341.8 497.0 385.0 C 504.3 428.2 526.2 576.7 532.0 615.0"/>
  <path d="M 527 360 C 528.3 357.3 504.3 353.2 535.0 344.0 C 565.7 334.8 672.5 311.3 711.0 305.0 C 749.5 298.7 752.7 302.7 766.0 306.0 C 779.3 309.3 785.0 319.5 791.0 325.0 C 797.0 330.5 806.8 305.2 802.0 339.0 C 797.2 372.8 771.3 489.2 762.0 528.0 C 752.7 566.8 752.5 564.3 746.0 572.0 C 739.5 579.7 726.8 573.7 723.0 574.0"/>
  <path d="M 543 479 C 548.0 476.3 559.0 467.5 573.0 463.0 C 587.0 458.5 612.5 454.7 627.0 452.0 C 641.5 449.3 648.7 447.0 660.0 447.0 C 671.3 447.0 689.2 451.2 695.0 452.0"/>
  <path d="M 554 587 C 560.0 584.5 566.2 576.5 590.0 572.0 C 613.8 567.5 676.8 563.3 697.0 560.0 C 717.2 556.7 708.7 553.3 711.0 552.0"/>
  <path d="M 410 764 C 419.2 765.5 435.8 774.8 465.0 773.0 C 494.2 771.2 525.5 760.5 585.0 753.0 C 644.5 745.5 773.2 731.0 822.0 728.0 C 870.8 725.0 862.8 731.8 878.0 735.0 C 893.2 738.2 907.2 745.0 913.0 747.0"/>
</g>
<g id="StrokeNumbers_062c5">
  <text transform="matrix(1 0 0 1 141.0 374.0)">1</text>
  <text transform="matrix(1 0 0 1 292.0 98.0)">2</text>
  <text transform="matrix(1 0 0 1 71.0 669.0)">3</text>
  <text transform="matrix(1 0 0 1 478.0 300.0)">4</text>
  <text transform="matrix(1 0 0 1 545.0 330.0)">5</text>
  <text transform="matrix(1 0 0 1 561.0 449.0)">6</text>
  <text transform="matrix(1 0 0 1 572.0 557.0)">7</text>
  <text transform="matrix(1 0 0 1 428.0 734.0)">8</text>
</g>
</svg>
