<?xml version="1.0" encoding="UTF-8"?>
<!-- Generated from Make Me a Hanzi stroke medians. See ARPHICPL.TXT. -->
<svg xmlns="http://www.w3.org/2000/svg" viewBox="0 0 1016 1000">
<g id="StrokePaths_06320">
  <path d="M 142 376 C 153 376 171 383 207 376 C 243 369 325 340 360 332 C 395 324 406 328 415 327"/>
  <path d="M 286 116 C 290 119 304 125 311 132 C 318 139 330 106 331 160 C 332 214 319 346 317 453 C 315 560 318 736 317 799 C 316 862 314 820 310 830 C 306 840 302 854 294 857 C 286 860 281 855 264 846 C 247 837 206 812 194 804 C 182 796 195 798 193 797 C 191 796 184 796 182 796"/>
  <path d="M 68 666 C 76 667 60 704 115 671 C 170 638 352 504 400 470"/>
  <path d="M 457 293 C 463 293 482 295 495 294 C 508 293 503 298 538 286 C 573 274 668 237 706 225 C 744 213 758 217 768 215"/>
  <path d="M 498 111 C 502 113 514 118 522 124 C 530 130 536 128 543 146 C 550 164 558 208 567 232 C 576 256 586 274 597 293 C 608 312 614 322 632 344 C 650 366 682 402 702 422 C 722 442 739 454 754 464 C 769 474 777 479 791 484 C 805 489 829 499 840 492 C 851 485 853 466 858 442 C 863 418 870 361 872 345"/>
  <path d="M 747 269 C 749 272 755 283 757 290 C 759 297 767 300 758 313 C 749 326 727 347 702 368 C 677 389 638 417 608 437 C 578 457 541 478 521 488 C 501 498 495 497 490 499"/>
  <path d="M 420 588 C 428 589 422 601 467 594 C 512 587 647 556 691 548 C 735 540 716 544 729 544 C 742 544 762 549 769 550"/>
  <path d="M 513 614 C 518 618 540 620 542 636 C 544 652 534 684 526 708 C 518 732 506 760 492 782 C 478 804 462 824 440 841 C 418 858 373 876 360 883"/>
  <path d="M 617 589 C 622 592 637 600 644 606 C 651 612 657 600 658 625 C 659 650 652 727 652 757 C 652 787 656 794 658 807 C 660 820 660 824 666 833 C 672 842 682 854 697 861 C 712 868 736 872 759 875 C 782 878 812 879 835 878 C 858 877 879 874 896 871 C 913 868 927 862 935 858 C 943 854 944 875 946 850 C 948 825 946 731 946 707"/>
</g>
<g id="StrokeNumbers_06320">
  <text transform="matrix(1 0 0 1 160 346)">1</text>
  <text transform="matrix(1 0 0 1 304 86)">2</text>
  <text transform="matrix(1 0 0 1 86 636)">3</text>
  <text transform="matrix(1 0 0 1 475 263)">4</text>
  <text transform="matrix(1 0 0 1 516 81)">5</text>
  <text transform="matrix(1 0 0 1 765 239)">6</text>
  <text transform="matrix(1 0 0 1 438 558)">7</text>
  <text transform="matrix(1 0 0 1 531 584)">8</text>
  <text transform="matrix(1 0 0 1 635 559)">9</text>
</g>
</svg>
